<svg width="286" height="158" viewBox="0 0 286 158" fill="none" xmlns="http://www.w3.org/2000/svg">
<path d="M54.0952 66V48.5455H56.777V56.1364H58.5497L64.8224 48.5455H68.277L61.2315 56.9545L68.3679 66H64.9134L59.1861 58.6364H56.777V66H54.0952ZM76.419 66.4091C75.313 66.4091 74.3092 66.2008 73.4077 65.7841C72.5062 65.3598 71.7902 64.75 71.2599 63.9545C70.7296 63.1515 70.4645 62.1818 70.4645 61.0455C70.4645 60.0455 70.6615 59.2348 71.0554 58.6136C71.4493 57.9848 71.9759 57.4924 72.6349 57.1364C73.294 56.7803 74.0213 56.5152 74.8168 56.3409C75.6198 56.1591 76.4266 56.0152 77.2372 55.9091C78.2978 55.7727 79.1577 55.6705 79.8168 55.6023C80.4834 55.5265 80.9683 55.4015 81.2713 55.2273C81.5819 55.053 81.7372 54.75 81.7372 54.3182V54.2273C81.7372 53.1061 81.4304 52.2348 80.8168 51.6136C80.2107 50.9924 79.2902 50.6818 78.0554 50.6818C76.7751 50.6818 75.7713 50.9621 75.044 51.5227C74.3168 52.0833 73.8054 52.6818 73.5099 53.3182L70.9645 52.4091C71.419 51.3485 72.0251 50.5227 72.7827 49.9318C73.5478 49.3333 74.3812 48.9167 75.2827 48.6818C76.1918 48.4394 77.0857 48.3182 77.9645 48.3182C78.5251 48.3182 79.169 48.3864 79.8963 48.5227C80.6312 48.6515 81.3395 48.9205 82.0213 49.3295C82.7107 49.7386 83.2827 50.3561 83.7372 51.1818C84.1918 52.0076 84.419 53.1136 84.419 54.5V66H81.7372V63.6364H81.6009C81.419 64.0152 81.116 64.4205 80.6918 64.8523C80.2675 65.2841 79.7031 65.6515 78.9986 65.9545C78.294 66.2576 77.4342 66.4091 76.419 66.4091ZM76.8281 64C77.8887 64 78.7827 63.7917 79.5099 63.375C80.2448 62.9583 80.7978 62.4205 81.169 61.7614C81.5478 61.1023 81.7372 60.4091 81.7372 59.6818V57.2273C81.6236 57.3636 81.3736 57.4886 80.9872 57.6023C80.6084 57.7083 80.169 57.803 79.669 57.8864C79.1766 57.9621 78.6955 58.0303 78.2259 58.0909C77.7637 58.1439 77.3887 58.1894 77.1009 58.2273C76.4039 58.3182 75.7524 58.4659 75.1463 58.6705C74.5478 58.8674 74.063 59.1667 73.6918 59.5682C73.3281 59.9621 73.1463 60.5 73.1463 61.1818C73.1463 62.1136 73.491 62.8182 74.1804 63.2955C74.8774 63.7652 75.7599 64 76.8281 64ZM89.3139 72.5455V48.5455H91.9048V51.3182H92.223C92.42 51.0152 92.6927 50.6288 93.0412 50.1591C93.3973 49.6818 93.9048 49.2576 94.5639 48.8864C95.2306 48.5076 96.1321 48.3182 97.2685 48.3182C98.7382 48.3182 100.034 48.6856 101.155 49.4205C102.276 50.1553 103.151 51.197 103.78 52.5455C104.409 53.8939 104.723 55.4848 104.723 57.3182C104.723 59.1667 104.409 60.7689 103.78 62.125C103.151 63.4735 102.28 64.5189 101.166 65.2614C100.053 65.9962 98.7685 66.3636 97.3139 66.3636C96.1927 66.3636 95.295 66.178 94.6207 65.8068C93.9465 65.428 93.4276 65 93.0639 64.5227C92.7003 64.0379 92.42 63.6364 92.223 63.3182H91.9957V72.5455H89.3139ZM91.9503 57.2727C91.9503 58.5909 92.1435 59.7538 92.5298 60.7614C92.9162 61.7614 93.4806 62.5455 94.223 63.1136C94.9654 63.6742 95.8745 63.9545 96.9503 63.9545C98.0715 63.9545 99.0071 63.6591 99.7571 63.0682C100.515 62.4697 101.083 61.6667 101.462 60.6591C101.848 59.6439 102.041 58.5152 102.041 57.2727C102.041 56.0455 101.852 54.9394 101.473 53.9545C101.102 52.9621 100.537 52.178 99.7798 51.6023C99.0298 51.0189 98.0866 50.7273 96.9503 50.7273C95.8594 50.7273 94.9427 51.0038 94.2003 51.5568C93.4579 52.1023 92.8973 52.8674 92.5185 53.8523C92.1397 54.8295 91.9503 55.9697 91.9503 57.2727ZM106.533 51.0455V48.5455H120.714V51.0455H114.987V66H112.305V51.0455H106.533ZM127.308 62.0455L135.717 48.5455H138.808V66H136.126V52.5L127.763 66H124.626V48.5455H127.308V62.0455ZM155.402 56.0455V58.5455H145.766V56.0455H155.402ZM146.402 48.5455V66H143.72V48.5455H146.402ZM157.447 48.5455V66H154.766V48.5455H157.447ZM162.345 66V48.5455H165.027V56.1364H166.8L173.072 48.5455H176.527L169.482 56.9545L176.618 66H173.163L167.436 58.6364H165.027V66H162.345ZM184.669 66.4091C183.563 66.4091 182.559 66.2008 181.658 65.7841C180.756 65.3598 180.04 64.75 179.51 63.9545C178.98 63.1515 178.714 62.1818 178.714 61.0455C178.714 60.0455 178.911 59.2348 179.305 58.6136C179.699 57.9848 180.226 57.4924 180.885 57.1364C181.544 56.7803 182.271 56.5152 183.067 56.3409C183.87 56.1591 184.677 56.0152 185.487 55.9091C186.548 55.7727 187.408 55.6705 188.067 55.6023C188.733 55.5265 189.218 55.4015 189.521 55.2273C189.832 55.053 189.987 54.75 189.987 54.3182V54.2273C189.987 53.1061 189.68 52.2348 189.067 51.6136C188.461 50.9924 187.54 50.6818 186.305 50.6818C185.025 50.6818 184.021 50.9621 183.294 51.5227C182.567 52.0833 182.055 52.6818 181.76 53.3182L179.214 52.4091C179.669 51.3485 180.275 50.5227 181.033 49.9318C181.798 49.3333 182.631 48.9167 183.533 48.6818C184.442 48.4394 185.336 48.3182 186.214 48.3182C186.775 48.3182 187.419 48.3864 188.146 48.5227C188.881 48.6515 189.589 48.9205 190.271 49.3295C190.961 49.7386 191.533 50.3561 191.987 51.1818C192.442 52.0076 192.669 53.1136 192.669 54.5V66H189.987V63.6364H189.851C189.669 64.0152 189.366 64.4205 188.942 64.8523C188.518 65.2841 187.953 65.6515 187.249 65.9545C186.544 66.2576 185.684 66.4091 184.669 66.4091ZM185.078 64C186.139 64 187.033 63.7917 187.76 63.375C188.495 62.9583 189.048 62.4205 189.419 61.7614C189.798 61.1023 189.987 60.4091 189.987 59.6818V57.2273C189.874 57.3636 189.624 57.4886 189.237 57.6023C188.858 57.7083 188.419 57.803 187.919 57.8864C187.427 57.9621 186.946 58.0303 186.476 58.0909C186.014 58.1439 185.639 58.1894 185.351 58.2273C184.654 58.3182 184.002 58.4659 183.396 58.6705C182.798 58.8674 182.313 59.1667 181.942 59.5682C181.578 59.9621 181.396 60.5 181.396 61.1818C181.396 62.1136 181.741 62.8182 182.43 63.2955C183.127 63.7652 184.01 64 185.078 64ZM218.246 56.0455V58.5455H208.609V56.0455H218.246ZM209.246 48.5455V66H206.564V48.5455H209.246ZM220.291 48.5455V66H217.609V48.5455H220.291ZM232.507 66.3636C230.825 66.3636 229.375 65.9924 228.155 65.25C226.943 64.5 226.007 63.4545 225.348 62.1136C224.696 60.7652 224.371 59.197 224.371 57.4091C224.371 55.6212 224.696 54.0455 225.348 52.6818C226.007 51.3106 226.924 50.2424 228.098 49.4773C229.28 48.7045 230.659 48.3182 232.234 48.3182C233.143 48.3182 234.041 48.4697 234.928 48.7727C235.814 49.0758 236.621 49.5682 237.348 50.25C238.075 50.9242 238.655 51.8182 239.087 52.9318C239.518 54.0455 239.734 55.4167 239.734 57.0455V58.1818H226.28V55.8636H237.007C237.007 54.8788 236.81 54 236.416 53.2273C236.03 52.4545 235.477 51.8447 234.757 51.3977C234.045 50.9508 233.204 50.7273 232.234 50.7273C231.166 50.7273 230.242 50.9924 229.462 51.5227C228.689 52.0455 228.094 52.7273 227.678 53.5682C227.261 54.4091 227.053 55.3106 227.053 56.2727V57.8182C227.053 59.1364 227.28 60.2538 227.734 61.1705C228.196 62.0795 228.837 62.7727 229.655 63.25C230.473 63.7197 231.424 63.9545 232.507 63.9545C233.212 63.9545 233.848 63.8561 234.416 63.6591C234.992 63.4545 235.488 63.1515 235.905 62.75C236.321 62.3409 236.643 61.8333 236.871 61.2273L239.462 61.9545C239.189 62.8333 238.731 63.6061 238.087 64.2727C237.443 64.9318 236.647 65.447 235.7 65.8182C234.753 66.1818 233.689 66.3636 232.507 66.3636ZM80.4332 95.0455V97.5455H70.7969V95.0455H80.4332ZM71.4332 87.5455V105H68.7514V87.5455H71.4332ZM82.4787 87.5455V105H79.7969V87.5455H82.4787ZM92.5128 105.409C91.4067 105.409 90.4029 105.201 89.5014 104.784C88.5999 104.36 87.884 103.75 87.3537 102.955C86.8234 102.152 86.5582 101.182 86.5582 100.045C86.5582 99.0455 86.7552 98.2348 87.1491 97.6136C87.5431 96.9848 88.0696 96.4924 88.7287 96.1364C89.3878 95.7803 90.1151 95.5152 90.9105 95.3409C91.7135 95.1591 92.5204 95.0152 93.331 94.9091C94.3916 94.7727 95.2514 94.6705 95.9105 94.6023C96.5772 94.5265 97.062 94.4015 97.3651 94.2273C97.6757 94.053 97.831 93.75 97.831 93.3182V93.2273C97.831 92.1061 97.5241 91.2348 96.9105 90.6136C96.3045 89.9924 95.384 89.6818 94.1491 89.6818C92.8688 89.6818 91.8651 89.9621 91.1378 90.5227C90.4105 91.0833 89.8991 91.6818 89.6037 92.3182L87.0582 91.4091C87.5128 90.3485 88.1188 89.5227 88.8764 88.9318C89.6416 88.3333 90.4749 87.9167 91.3764 87.6818C92.2855 87.4394 93.1795 87.3182 94.0582 87.3182C94.6188 87.3182 95.2628 87.3864 95.9901 87.5227C96.7249 87.6515 97.4332 87.9205 98.1151 88.3295C98.8045 88.7386 99.3764 89.3561 99.831 90.1818C100.286 91.0076 100.513 92.1136 100.513 93.5V105H97.831V102.636H97.6946C97.5128 103.015 97.2098 103.42 96.7855 103.852C96.3613 104.284 95.7969 104.652 95.0923 104.955C94.3878 105.258 93.5279 105.409 92.5128 105.409ZM92.9219 103C93.9825 103 94.8764 102.792 95.6037 102.375C96.3385 101.958 96.8916 101.42 97.2628 100.761C97.6416 100.102 97.831 99.4091 97.831 98.6818V96.2273C97.7173 96.3636 97.4673 96.4886 97.081 96.6023C96.7022 96.7083 96.2628 96.803 95.7628 96.8864C95.2704 96.9621 94.7893 97.0303 94.3196 97.0909C93.8575 97.1439 93.4825 97.1894 93.1946 97.2273C92.4976 97.3182 91.8461 97.4659 91.2401 97.6705C90.6416 97.8674 90.1567 98.1667 89.7855 98.5682C89.4219 98.9621 89.2401 99.5 89.2401 100.182C89.2401 101.114 89.5848 101.818 90.2741 102.295C90.9711 102.765 91.8537 103 92.9219 103ZM108.089 101.045L116.499 87.5455H119.589V105H116.908V91.5L108.544 105H105.408V87.5455H108.089V101.045ZM114.726 81.7273H117.226C117.226 82.9545 116.802 83.9583 115.953 84.7386C115.105 85.5189 113.953 85.9091 112.499 85.9091C111.067 85.9091 109.927 85.5189 109.078 84.7386C108.237 83.9583 107.817 82.9545 107.817 81.7273H110.317C110.317 82.3182 110.48 82.8371 110.805 83.2841C111.139 83.7311 111.703 83.9545 112.499 83.9545C113.294 83.9545 113.862 83.7311 114.203 83.2841C114.552 82.8371 114.726 82.3182 114.726 81.7273ZM122.638 110V102.5H124.092C124.448 102.129 124.755 101.727 125.013 101.295C125.27 100.864 125.494 100.352 125.683 99.7614C125.88 99.1629 126.047 98.4356 126.183 97.5795C126.32 96.7159 126.441 95.6742 126.547 94.4545L127.138 87.5455H138.229V102.5H140.911V110H138.229V105H125.32V110H122.638ZM127.138 102.5H135.547V90.0455H129.638L129.183 94.4545C128.994 96.2803 128.759 97.875 128.479 99.2386C128.198 100.602 127.751 101.689 127.138 102.5ZM151.788 105.364C150.107 105.364 148.656 104.992 147.436 104.25C146.224 103.5 145.288 102.455 144.629 101.114C143.978 99.7652 143.652 98.197 143.652 96.4091C143.652 94.6212 143.978 93.0455 144.629 91.6818C145.288 90.3106 146.205 89.2424 147.379 88.4773C148.561 87.7045 149.94 87.3182 151.516 87.3182C152.425 87.3182 153.322 87.4697 154.209 87.7727C155.095 88.0758 155.902 88.5682 156.629 89.25C157.357 89.9242 157.936 90.8182 158.368 91.9318C158.8 93.0455 159.016 94.4167 159.016 96.0455V97.1818H145.561V94.8636H156.288C156.288 93.8788 156.091 93 155.697 92.2273C155.311 91.4545 154.758 90.8447 154.038 90.3977C153.326 89.9508 152.485 89.7273 151.516 89.7273C150.447 89.7273 149.523 89.9924 148.743 90.5227C147.97 91.0455 147.375 91.7273 146.959 92.5682C146.542 93.4091 146.334 94.3106 146.334 95.2727V96.8182C146.334 98.1364 146.561 99.2538 147.016 100.17C147.478 101.08 148.118 101.773 148.936 102.25C149.754 102.72 150.705 102.955 151.788 102.955C152.493 102.955 153.129 102.856 153.697 102.659C154.273 102.455 154.769 102.152 155.186 101.75C155.603 101.341 155.925 100.833 156.152 100.227L158.743 100.955C158.47 101.833 158.012 102.606 157.368 103.273C156.724 103.932 155.929 104.447 154.982 104.818C154.035 105.182 152.97 105.364 151.788 105.364ZM174.777 95.0455V97.5455H165.141V95.0455H174.777ZM165.777 87.5455V105H163.095V87.5455H165.777ZM176.822 87.5455V105H174.141V87.5455H176.822ZM186.857 105.409C185.75 105.409 184.747 105.201 183.845 104.784C182.944 104.36 182.228 103.75 181.697 102.955C181.167 102.152 180.902 101.182 180.902 100.045C180.902 99.0455 181.099 98.2348 181.493 97.6136C181.887 96.9848 182.413 96.4924 183.072 96.1364C183.732 95.7803 184.459 95.5152 185.254 95.3409C186.057 95.1591 186.864 95.0152 187.675 94.9091C188.735 94.7727 189.595 94.6705 190.254 94.6023C190.921 94.5265 191.406 94.4015 191.709 94.2273C192.019 94.053 192.175 93.75 192.175 93.3182V93.2273C192.175 92.1061 191.868 91.2348 191.254 90.6136C190.648 89.9924 189.728 89.6818 188.493 89.6818C187.213 89.6818 186.209 89.9621 185.482 90.5227C184.754 91.0833 184.243 91.6818 183.947 92.3182L181.402 91.4091C181.857 90.3485 182.463 89.5227 183.22 88.9318C183.985 88.3333 184.819 87.9167 185.72 87.6818C186.629 87.4394 187.523 87.3182 188.402 87.3182C188.963 87.3182 189.607 87.3864 190.334 87.5227C191.069 87.6515 191.777 87.9205 192.459 88.3295C193.148 88.7386 193.72 89.3561 194.175 90.1818C194.629 91.0076 194.857 92.1136 194.857 93.5V105H192.175V102.636H192.038C191.857 103.015 191.554 103.42 191.129 103.852C190.705 104.284 190.141 104.652 189.436 104.955C188.732 105.258 187.872 105.409 186.857 105.409ZM187.266 103C188.326 103 189.22 102.792 189.947 102.375C190.682 101.958 191.235 101.42 191.607 100.761C191.985 100.102 192.175 99.4091 192.175 98.6818V96.2273C192.061 96.3636 191.811 96.4886 191.425 96.6023C191.046 96.7083 190.607 96.803 190.107 96.8864C189.614 96.9621 189.133 97.0303 188.663 97.0909C188.201 97.1439 187.826 97.1894 187.538 97.2273C186.841 97.3182 186.19 97.4659 185.584 97.6705C184.985 97.8674 184.5 98.1667 184.129 98.5682C183.766 98.9621 183.584 99.5 183.584 100.182C183.584 101.114 183.929 101.818 184.618 102.295C185.315 102.765 186.197 103 187.266 103ZM210.706 105.182C210.145 105.182 209.664 104.981 209.263 104.58C208.861 104.178 208.661 103.697 208.661 103.136C208.661 102.576 208.861 102.095 209.263 101.693C209.664 101.292 210.145 101.091 210.706 101.091C211.267 101.091 211.748 101.292 212.149 101.693C212.551 102.095 212.751 102.576 212.751 103.136C212.751 103.508 212.657 103.848 212.467 104.159C212.286 104.47 212.039 104.72 211.729 104.909C211.426 105.091 211.085 105.182 210.706 105.182ZM210.706 92.2273C210.145 92.2273 209.664 92.0265 209.263 91.625C208.861 91.2235 208.661 90.7424 208.661 90.1818C208.661 89.6212 208.861 89.1402 209.263 88.7386C209.664 88.3371 210.145 88.1364 210.706 88.1364C211.267 88.1364 211.748 88.3371 212.149 88.7386C212.551 89.1402 212.751 89.6212 212.751 90.1818C212.751 90.553 212.657 90.8939 212.467 91.2045C212.286 91.5152 212.039 91.7652 211.729 91.9545C211.426 92.1364 211.085 92.2273 210.706 92.2273ZM218.518 95.1818C218.518 92.3182 218.89 89.6856 219.632 87.2841C220.382 84.875 221.45 82.6591 222.837 80.6364H225.2C224.655 81.3864 224.143 82.3106 223.666 83.4091C223.196 84.5 222.784 85.7008 222.428 87.0114C222.071 88.3144 221.791 89.6629 221.587 91.0568C221.39 92.4508 221.291 93.8258 221.291 95.1818C221.291 96.9848 221.465 98.8144 221.814 100.67C222.162 102.527 222.632 104.25 223.223 105.841C223.814 107.432 224.473 108.727 225.2 109.727H222.837C221.45 107.705 220.382 105.492 219.632 103.091C218.89 100.682 218.518 98.0455 218.518 95.1818Z" fill="#EDEDED"/>
</svg>
